# xmcd
#
# Track frame offsets: 
#        150
#        13097
#        26705
#        43120
#        64307
#        84060
#        101004
#        121120
#        132715
#        148537
#        163567
#        175459
#        185555
#
# Disc length: 2729 seconds
#
# Revision: 0
# Processed by: cddbd v1.5.2PL0 Copyright (c) Steve Scherf et al.
# Submitted via: ExactAudioCopy v1.0b6
#
DISCID=b40aa70d
DTITLE=Nancy Allen - Shall We Gather (1998)
DYEAR=1998
DGENRE=Adult Contemporary
TTITLE0=Amazing Grace
TTITLE1=Shall We Gather by the River
TTITLE2=Complacency
TTITLE3=We Can Be Kind
TTITLE4=His Eye is on the Sparrow
TTITLE5=Walk by Faith
TTITLE6=Via Dolorosa
TTITLE7=Oh Me of Little Faith
TTITLE8=Without You
TTITLE9=How Can They Live Without Jesus?
TTITLE10=Hymn of Promise
TTITLE11=Worthy!
TTITLE12=At Last I'm Home
EXTD=CD Baby id:nancyallen2Barcode: 634479246388
EXTT0=
EXTT1=
EXTT2=
EXTT3=
EXTT4=
EXTT5=
EXTT6=
EXTT7=
EXTT8=
EXTT9=
EXTT10=
EXTT11=
EXTT12=
PLAYORDER=
